M48
; DRILL file {KiCad (5.99.0-7843-ge1f76ea2ab)} date Thu Jan  7 03:20:15 2021
; FORMAT={-:-/ absolute / inch / decimal}
; #@! TF.CreationDate,2021-01-07T03:20:15-05:00
; #@! TF.GenerationSoftware,Kicad,Pcbnew,(5.99.0-7843-ge1f76ea2ab)
; #@! TF.FileFunction,Plated,1,2,PTH
FMAT,2
INCH
T1C0.0236
T2C0.0295
T3C0.0315
T4C0.0390
T5C0.0394
T6C0.0500
T7C0.0630
%
G90
G05
T1
X1.5Y-3.9213
X1.5Y-4.0
X1.5Y-4.1213
X1.5Y-4.2
T2
X3.0Y-2.8
X3.0Y-2.8787
X3.0Y-2.9575
X3.0Y-3.0362
X3.0Y-3.115
X3.4Y-2.8
X3.4Y-2.8787
X3.4Y-2.9575
X3.4Y-3.0362
X3.4Y-3.115
T3
X1.8Y-3.0
X1.8Y-3.4
X1.8Y-4.0
X1.8Y-4.1921
X2.4Y-2.9
X2.4Y-3.0
X2.4Y-3.1
X2.4Y-3.2
X2.4Y-3.3
X2.4Y-3.4
X2.4Y-3.5
X2.4Y-3.6
X2.4Y-3.7
X2.4Y-3.8
X2.4Y-3.9
X2.4Y-4.0
X2.4Y-4.1
X2.4Y-4.2
X2.6Y-4.6
X2.6Y-4.8
X2.7Y-2.9
X2.7Y-3.0
X2.7Y-3.1
X2.7Y-3.2
X2.7Y-3.3
X2.7Y-3.4
X2.7Y-3.5
X2.7Y-3.6
X2.7Y-3.7
X2.7Y-3.8
X2.7Y-3.9
X2.7Y-4.0
X2.7Y-4.1
X2.7Y-4.2
X3.0Y-4.6
X3.0Y-4.8
X3.1Y-3.6
X3.1Y-3.9
X3.5Y-3.6
X3.5Y-3.9
T4
X0.8114Y-2.972
X0.8114Y-3.228
X0.9886Y-2.972
X0.9886Y-3.228
T5
X1.1Y-2.0
X1.1Y-2.0787
X1.1213Y-3.7
X1.2Y-3.1
X1.2Y-3.3
X1.2Y-3.7
X1.3Y-3.1
X1.3Y-3.3
X1.6Y-3.1
X1.6Y-3.3
X2.0Y-2.4
X2.0787Y-2.4
X2.6Y-2.3
X2.6Y-2.3787
X3.2Y-4.1
X3.2Y-4.2
X3.3Y-4.1
X3.3Y-4.2
X3.4Y-4.1
X3.4Y-4.2
X3.8Y-4.6
X3.8Y-4.6787
X4.2Y-4.6
X4.2Y-4.6787
X4.3Y-3.4
X4.3Y-3.4787
X4.3Y-3.9
X4.3Y-3.9787
X4.7Y-2.6
X4.7Y-2.8
X4.7Y-3.0
X4.7Y-3.2
X4.7Y-3.4
X4.7Y-3.6
X4.7Y-3.8
X4.7Y-4.0
X4.7Y-4.2
X4.7Y-4.4
X4.8Y-2.6
X4.8Y-2.8
X4.8Y-3.0
X4.8Y-3.2
X4.8Y-3.4
X4.8Y-3.6
X4.8Y-3.8
X4.8Y-4.0
X4.8Y-4.2
X4.8Y-4.4
X5.1Y-2.6
X5.1Y-2.8
X5.1Y-3.0
X5.1Y-3.2
X5.1Y-3.4
X5.1Y-3.6
X5.1Y-3.8
X5.1Y-4.0
X5.1Y-4.2
X5.1Y-4.4
X5.6Y-2.6
X5.6Y-2.6787
X5.6Y-3.0
X5.6Y-3.0787
X5.6Y-3.5
X5.6Y-3.5787
X5.6Y-3.9
X5.6Y-3.9787
X5.6Y-4.3
X5.6Y-4.3787
T6
X0.9Y-2.5
X0.9Y-2.6
X0.9Y-2.7
T7
X1.5348Y-1.9331
X1.5348Y-2.0669
X2.0652Y-1.9331
X2.0652Y-2.0669
T0
M30
