%TF.GenerationSoftware,KiCad,Pcbnew,(5.99.0-7306-g4b2d9a5054)*%
%TF.CreationDate,2020-12-03T04:12:58-05:00*%
%TF.ProjectId,CaRFID,43615246-4944-42e6-9b69-6361645f7063,rev?*%
%TF.SameCoordinates,Original*%
%TF.FileFunction,Copper,L2,Bot*%
%TF.FilePolarity,Positive*%
%FSLAX46Y46*%
G04 Gerber Fmt 4.6, Leading zero omitted, Abs format (unit mm)*
G04 Created by KiCad (PCBNEW (5.99.0-7306-g4b2d9a5054)) date 2020-12-03 04:12:58*
%MOMM*%
%LPD*%
G01*
G04 APERTURE LIST*
G04 Aperture macros list*
%AMRoundRect*
0 Rectangle with rounded corners*
0 $1 Rounding radius*
0 $2 $3 $4 $5 $6 $7 $8 $9 X,Y pos of 4 corners*
0 Add a 4 corners polygon primitive as box body*
4,1,4,$2,$3,$4,$5,$6,$7,$8,$9,$2,$3,0*
0 Add four circle primitives for the rounded corners*
1,1,$1+$1,$2,$3,0*
1,1,$1+$1,$4,$5,0*
1,1,$1+$1,$6,$7,0*
1,1,$1+$1,$8,$9,0*
0 Add four rect primitives between the rounded corners*
20,1,$1+$1,$2,$3,$4,$5,0*
20,1,$1+$1,$4,$5,$6,$7,0*
20,1,$1+$1,$6,$7,$8,$9,0*
20,1,$1+$1,$8,$9,$2,$3,0*%
G04 Aperture macros list end*
%TA.AperFunction,ComponentPad*%
%ADD10C,1.910000*%
%TD*%
%TA.AperFunction,ComponentPad*%
%ADD11R,1.910000X1.910000*%
%TD*%
%TA.AperFunction,ComponentPad*%
%ADD12RoundRect,0.250000X-0.750000X-0.400000X0.750000X-0.400000X0.750000X0.400000X-0.750000X0.400000X0*%
%TD*%
%TA.AperFunction,ComponentPad*%
%ADD13O,2.000000X1.300000*%
%TD*%
%TA.AperFunction,ComponentPad*%
%ADD14RoundRect,0.250000X0.400000X-0.750000X0.400000X0.750000X-0.400000X0.750000X-0.400000X-0.750000X0*%
%TD*%
%TA.AperFunction,ComponentPad*%
%ADD15O,1.300000X2.000000*%
%TD*%
%TA.AperFunction,ComponentPad*%
%ADD16R,1.200000X1.200000*%
%TD*%
%TA.AperFunction,ComponentPad*%
%ADD17C,1.200000*%
%TD*%
%TA.AperFunction,ComponentPad*%
%ADD18R,2.000000X2.000000*%
%TD*%
%TA.AperFunction,ComponentPad*%
%ADD19C,2.000000*%
%TD*%
%TA.AperFunction,ComponentPad*%
%ADD20R,1.700000X1.700000*%
%TD*%
%TA.AperFunction,ComponentPad*%
%ADD21O,1.700000X1.700000*%
%TD*%
%TA.AperFunction,ComponentPad*%
%ADD22R,1.600000X1.600000*%
%TD*%
%TA.AperFunction,ComponentPad*%
%ADD23O,1.600000X1.600000*%
%TD*%
%TA.AperFunction,ComponentPad*%
%ADD24C,1.600000*%
%TD*%
%TA.AperFunction,ComponentPad*%
%ADD25RoundRect,0.250000X-0.625000X0.350000X-0.625000X-0.350000X0.625000X-0.350000X0.625000X0.350000X0*%
%TD*%
%TA.AperFunction,ComponentPad*%
%ADD26O,1.750000X1.200000*%
%TD*%
%TA.AperFunction,ComponentPad*%
%ADD27C,2.780000*%
%TD*%
%TA.AperFunction,ComponentPad*%
%ADD28R,1.498000X1.498000*%
%TD*%
%TA.AperFunction,ComponentPad*%
%ADD29C,1.498000*%
%TD*%
%TA.AperFunction,ComponentPad*%
%ADD30C,1.500000*%
%TD*%
%TA.AperFunction,Conductor*%
%ADD31C,0.127000*%
%TD*%
%TA.AperFunction,Conductor*%
%ADD32C,0.250000*%
%TD*%
G04 APERTURE END LIST*
D10*
%TO.P,U1,3,OUT*%
%TO.N,Net-(J0-Pad4)*%
X22860000Y-68580000D03*
%TO.P,U1,2,GND*%
%TO.N,GND*%
X22860000Y-66040000D03*
D11*
%TO.P,U1,1,IN*%
%TO.N,Net-(J1-Pad1)*%
X22860000Y-63500000D03*
%TD*%
D12*
%TO.P,SW0,1,Pin_1*%
%TO.N,Net-(F0-Pad1)*%
X27940000Y-50800000D03*
D13*
%TO.P,SW0,2,Pin_2*%
%TO.N,Net-(J1-Pad1)*%
X27940000Y-52800000D03*
%TD*%
D12*
%TO.P,SW1,1,Pin_1*%
%TO.N,GND*%
X106680000Y-116840000D03*
D13*
%TO.P,SW1,2,Pin_2*%
%TO.N,Net-(J2-Pad3)*%
X106680000Y-118840000D03*
%TD*%
D12*
%TO.P,SW2,1,Pin_1*%
%TO.N,GND*%
X96520000Y-116840000D03*
D13*
%TO.P,SW2,2,Pin_2*%
%TO.N,Net-(J2-Pad1)*%
X96520000Y-118840000D03*
%TD*%
D12*
%TO.P,D0,1,Pin_1*%
%TO.N,Net-(D0-Pad1)*%
X109220000Y-86360000D03*
D13*
%TO.P,D0,2,Pin_2*%
%TO.N,GND*%
X109220000Y-88360000D03*
%TD*%
D12*
%TO.P,D1,1,Pin_1*%
%TO.N,Net-(D1-Pad1)*%
X109220000Y-99060000D03*
D13*
%TO.P,D1,2,Pin_2*%
%TO.N,GND*%
X109220000Y-101060000D03*
%TD*%
D14*
%TO.P,J1,1,Pin_1*%
%TO.N,Net-(J1-Pad1)*%
X50800000Y-60960000D03*
D15*
%TO.P,J1,2,Pin_2*%
%TO.N,GND*%
X52800000Y-60960000D03*
%TD*%
D16*
%TO.P,C0,1*%
%TO.N,Net-(C0-Pad1)*%
X38100000Y-101600000D03*
D17*
%TO.P,C0,2*%
%TO.N,GND*%
X38100000Y-99600000D03*
%TD*%
D18*
%TO.P,K2,1*%
%TO.N,Net-(K2-Pad1)*%
X119380000Y-91440000D03*
D19*
%TO.P,K2,2*%
%TO.N,GND*%
X121920000Y-91440000D03*
%TO.P,K2,5*%
%TO.N,Net-(J3-Pad3)*%
X129540000Y-91440000D03*
%TO.P,K2,6*%
X129540000Y-86360000D03*
%TO.P,K2,9*%
%TO.N,Net-(K2-Pad9)*%
X121920000Y-86360000D03*
%TO.P,K2,10*%
%TO.N,GND*%
X119380000Y-86360000D03*
%TD*%
D18*
%TO.P,K0,1*%
%TO.N,Net-(K0-Pad1)*%
X119380000Y-71120000D03*
D19*
%TO.P,K0,2*%
%TO.N,GND*%
X121920000Y-71120000D03*
%TO.P,K0,5*%
%TO.N,Net-(J3-Pad1)*%
X129540000Y-71120000D03*
%TO.P,K0,6*%
X129540000Y-66040000D03*
%TO.P,K0,9*%
%TO.N,Net-(K0-Pad9)*%
X121920000Y-66040000D03*
%TO.P,K0,10*%
%TO.N,GND*%
X119380000Y-66040000D03*
%TD*%
D20*
%TO.P,J2,1,MISO*%
%TO.N,Net-(J2-Pad1)*%
X81280000Y-104140000D03*
D21*
%TO.P,J2,2,VCC*%
%TO.N,Net-(J0-Pad4)*%
X81280000Y-106680000D03*
%TO.P,J2,3,SCK*%
%TO.N,Net-(J2-Pad3)*%
X83820000Y-104140000D03*
%TO.P,J2,4,MOSI*%
%TO.N,Net-(J2-Pad4)*%
X83820000Y-106680000D03*
%TO.P,J2,5,~RST*%
%TO.N,Net-(J2-Pad5)*%
X86360000Y-104140000D03*
%TO.P,J2,6,GND*%
%TO.N,GND*%
X86360000Y-106680000D03*
%TD*%
D18*
%TO.P,K4,1*%
%TO.N,Net-(K4-Pad1)*%
X119380000Y-111760000D03*
D19*
%TO.P,K4,2*%
%TO.N,GND*%
X121920000Y-111760000D03*
%TO.P,K4,5*%
%TO.N,Net-(J3-Pad5)*%
X129540000Y-111760000D03*
%TO.P,K4,6*%
X129540000Y-106680000D03*
%TO.P,K4,9*%
%TO.N,Net-(K4-Pad9)*%
X121920000Y-106680000D03*
%TO.P,K4,10*%
%TO.N,GND*%
X119380000Y-106680000D03*
%TD*%
D22*
%TO.P,U0,1,~RESET~/PC6*%
%TO.N,Net-(J2-Pad5)*%
X60960000Y-73660000D03*
D23*
%TO.P,U0,2,PD0*%
%TO.N,Net-(U0-Pad2)*%
X60960000Y-76200000D03*
%TO.P,U0,3,PD1*%
%TO.N,Net-(U0-Pad3)*%
X60960000Y-78740000D03*
%TO.P,U0,4,PD2*%
%TO.N,Net-(J0-Pad1)*%
X60960000Y-81280000D03*
%TO.P,U0,5,PD3*%
%TO.N,Net-(U0-Pad5)*%
X60960000Y-83820000D03*
%TO.P,U0,6,PD4*%
%TO.N,Net-(K1-Pad9)*%
X60960000Y-86360000D03*
%TO.P,U0,7,VCC*%
%TO.N,Net-(J0-Pad4)*%
X60960000Y-88900000D03*
%TO.P,U0,8,GND*%
%TO.N,GND*%
X60960000Y-91440000D03*
%TO.P,U0,9,XTAL1/PB6*%
%TO.N,Net-(C0-Pad1)*%
X60960000Y-93980000D03*
%TO.P,U0,10,XTAL2/PB7*%
%TO.N,Net-(C1-Pad1)*%
X60960000Y-96520000D03*
%TO.P,U0,11,PD5*%
%TO.N,Net-(K3-Pad9)*%
X60960000Y-99060000D03*
%TO.P,U0,12,PD6*%
%TO.N,Net-(K2-Pad9)*%
X60960000Y-101600000D03*
%TO.P,U0,13,PD7*%
%TO.N,Net-(K4-Pad9)*%
X60960000Y-104140000D03*
%TO.P,U0,14,PB0*%
%TO.N,Net-(K0-Pad9)*%
X60960000Y-106680000D03*
%TO.P,U0,15,PB1*%
%TO.N,Net-(U0-Pad15)*%
X68580000Y-106680000D03*
%TO.P,U0,16,PB2*%
%TO.N,Net-(R1-Pad1)*%
X68580000Y-104140000D03*
%TO.P,U0,17,PB3*%
%TO.N,Net-(J2-Pad4)*%
X68580000Y-101600000D03*
%TO.P,U0,18,PB4*%
%TO.N,Net-(J2-Pad1)*%
X68580000Y-99060000D03*
%TO.P,U0,19,PB5*%
%TO.N,Net-(J2-Pad3)*%
X68580000Y-96520000D03*
%TO.P,U0,20,AVCC*%
%TO.N,Net-(J0-Pad4)*%
X68580000Y-93980000D03*
%TO.P,U0,21,AREF*%
X68580000Y-91440000D03*
%TO.P,U0,22,GND*%
%TO.N,GND*%
X68580000Y-88900000D03*
%TO.P,U0,23,PC0*%
%TO.N,Net-(U0-Pad23)*%
X68580000Y-86360000D03*
%TO.P,U0,24,PC1*%
%TO.N,Net-(U0-Pad24)*%
X68580000Y-83820000D03*
%TO.P,U0,25,PC2*%
%TO.N,Net-(U0-Pad25)*%
X68580000Y-81280000D03*
%TO.P,U0,26,PC3*%
%TO.N,Net-(U0-Pad26)*%
X68580000Y-78740000D03*
%TO.P,U0,27,PC4*%
%TO.N,Net-(J0-Pad3)*%
X68580000Y-76200000D03*
%TO.P,U0,28,PC5*%
%TO.N,Net-(J0-Pad2)*%
X68580000Y-73660000D03*
%TD*%
D24*
%TO.P,R2,1*%
%TO.N,Net-(J0-Pad4)*%
X66040000Y-116840000D03*
D23*
%TO.P,R2,2*%
%TO.N,Net-(J2-Pad3)*%
X86360000Y-116840000D03*
%TD*%
D24*
%TO.P,R4,1*%
%TO.N,Net-(J0-Pad4)*%
X50800000Y-88900000D03*
D23*
%TO.P,R4,2*%
%TO.N,Net-(J2-Pad5)*%
X30480000Y-88900000D03*
%TD*%
D18*
%TO.P,K1,1*%
%TO.N,Net-(K1-Pad1)*%
X119380000Y-81280000D03*
D19*
%TO.P,K1,2*%
%TO.N,GND*%
X121920000Y-81280000D03*
%TO.P,K1,5*%
%TO.N,Net-(J3-Pad2)*%
X129540000Y-81280000D03*
%TO.P,K1,6*%
X129540000Y-76200000D03*
%TO.P,K1,9*%
%TO.N,Net-(K1-Pad9)*%
X121920000Y-76200000D03*
%TO.P,K1,10*%
%TO.N,GND*%
X119380000Y-76200000D03*
%TD*%
D24*
%TO.P,R0,1*%
%TO.N,Net-(J2-Pad4)*%
X78740000Y-91440000D03*
D23*
%TO.P,R0,2*%
%TO.N,Net-(D0-Pad1)*%
X99060000Y-91440000D03*
%TD*%
D25*
%TO.P,J3,1,Pin_1*%
%TO.N,Net-(J3-Pad1)*%
X144780000Y-86360000D03*
D26*
%TO.P,J3,2,Pin_2*%
%TO.N,Net-(J3-Pad2)*%
X144780000Y-88360000D03*
%TO.P,J3,3,Pin_3*%
%TO.N,Net-(J3-Pad3)*%
X144780000Y-90360000D03*
%TO.P,J3,4,Pin_4*%
%TO.N,Net-(J3-Pad4)*%
X144780000Y-92360000D03*
%TO.P,J3,5,Pin_5*%
%TO.N,Net-(J3-Pad5)*%
X144780000Y-94360000D03*
%TD*%
D27*
%TO.P,F0,1*%
%TO.N,Net-(F0-Pad1)*%
X40640000Y-54200000D03*
X40640000Y-50800000D03*
%TO.P,F0,2*%
%TO.N,+12V*%
X50560000Y-50800000D03*
X50560000Y-54200000D03*
%TD*%
D24*
%TO.P,R3,1*%
%TO.N,Net-(J0-Pad4)*%
X66040000Y-121920000D03*
D23*
%TO.P,R3,2*%
%TO.N,Net-(J2-Pad1)*%
X86360000Y-121920000D03*
%TD*%
D28*
%TO.P,SW3,1*%
%TO.N,Net-(J2-Pad5)*%
X20610000Y-81990000D03*
D29*
%TO.P,SW3,2*%
%TO.N,Net-(SW3-Pad2)*%
X20610000Y-75490000D03*
%TO.P,SW3,3*%
%TO.N,Net-(SW3-Pad3)*%
X25110000Y-81990000D03*
%TO.P,SW3,4*%
%TO.N,GND*%
X25110000Y-75490000D03*
%TD*%
D24*
%TO.P,R1,1*%
%TO.N,Net-(R1-Pad1)*%
X78740000Y-99060000D03*
D23*
%TO.P,R1,2*%
%TO.N,Net-(D1-Pad1)*%
X99060000Y-99060000D03*
%TD*%
D18*
%TO.P,K3,1*%
%TO.N,Net-(K3-Pad1)*%
X119380000Y-101600000D03*
D19*
%TO.P,K3,2*%
%TO.N,GND*%
X121920000Y-101600000D03*
%TO.P,K3,5*%
%TO.N,Net-(J3-Pad4)*%
X129540000Y-101600000D03*
%TO.P,K3,6*%
X129540000Y-96520000D03*
%TO.P,K3,9*%
%TO.N,Net-(K3-Pad9)*%
X121920000Y-96520000D03*
%TO.P,K3,10*%
%TO.N,GND*%
X119380000Y-96520000D03*
%TD*%
D25*
%TO.P,J0,1,Pin_1*%
%TO.N,Net-(J0-Pad1)*%
X76200000Y-71120000D03*
D26*
%TO.P,J0,2,Pin_2*%
%TO.N,Net-(J0-Pad2)*%
X76200000Y-73120000D03*
%TO.P,J0,3,Pin_3*%
%TO.N,Net-(J0-Pad3)*%
X76200000Y-75120000D03*
%TO.P,J0,4,Pin_4*%
%TO.N,Net-(J0-Pad4)*%
X76200000Y-77120000D03*
%TO.P,J0,5,Pin_5*%
%TO.N,GND*%
X76200000Y-79120000D03*
%TD*%
D30*
%TO.P,Y0,1,1*%
%TO.N,Net-(C0-Pad1)*%
X45720000Y-101600000D03*
%TO.P,Y0,2,2*%
%TO.N,Net-(C1-Pad1)*%
X45720000Y-106480000D03*
%TD*%
D16*
%TO.P,C1,1*%
%TO.N,Net-(C1-Pad1)*%
X38100000Y-106680000D03*
D17*
%TO.P,C1,2*%
%TO.N,GND*%
X38100000Y-108680000D03*
%TD*%
D31*
%TO.N,GND*%
X117920000Y-96520000D02*
X117380000Y-96520000D01*
X117380000Y-96520000D02*
X109220000Y-88360000D01*
X117920000Y-96520000D02*
X113380000Y-101060000D01*
X113380000Y-101060000D02*
X109220000Y-101060000D01*
D32*
%TO.N,Net-(K2-Pad9)*%
X60960000Y-101600000D02*
X67454999Y-95105001D01*
X67454999Y-95105001D02*
X67454999Y-93439999D01*
X67454999Y-93439999D02*
X68039999Y-92854999D01*
X68039999Y-92854999D02*
X75659999Y-92854999D01*
X75659999Y-92854999D02*
X81179988Y-87335010D01*
X81179988Y-87335010D02*
X116443988Y-87335010D01*
X116443988Y-87335010D02*
X118743999Y-85034999D01*
X118743999Y-85034999D02*
X120594999Y-85034999D01*
X120594999Y-85034999D02*
X121920000Y-86360000D01*
%TO.N,Net-(J0-Pad4)*%
X60960000Y-88900000D02*
X63500000Y-91440000D01*
X63500000Y-91440000D02*
X68580000Y-91440000D01*
%TO.N,GND*%
X119380000Y-73660000D02*
X121920000Y-71120000D01*
X119380000Y-76200000D02*
X119380000Y-73660000D01*
X109220000Y-88360000D02*
X110545010Y-89685010D01*
X119380000Y-96520000D02*
X117920000Y-96520000D01*
%TO.N,Net-(K0-Pad9)*%
X58420000Y-106680000D02*
X60960000Y-106680000D01*
X53340000Y-71120000D02*
X53340000Y-99111410D01*
X58420000Y-106680000D02*
X55880000Y-104140000D01*
X57094999Y-67365001D02*
X55429990Y-69030010D01*
X53340000Y-99111410D02*
X53340000Y-101600000D01*
X55429990Y-69030010D02*
X53340000Y-71120000D01*
X55880000Y-104140000D02*
X53340000Y-101600000D01*
X121920000Y-66040000D02*
X120594999Y-67365001D01*
X120594999Y-67365001D02*
X57094999Y-67365001D01*
%TO.N,Net-(K1-Pad9)*%
X62085001Y-85234999D02*
X112885001Y-85234999D01*
X112885001Y-85234999D02*
X121920000Y-76200000D01*
X60960000Y-86360000D02*
X62085001Y-85234999D01*
%TO.N,Net-(J0-Pad1)*%
X58420000Y-71120000D02*
X55880000Y-73660000D01*
X55880000Y-76200000D02*
X60960000Y-81280000D01*
X76200000Y-71120000D02*
X61314998Y-71120000D01*
X55880000Y-73660000D02*
X55880000Y-76200000D01*
X61314998Y-71120000D02*
X58420000Y-71120000D01*
%TO.N,Net-(K4-Pad9)*%
X121920000Y-106680000D02*
X120594999Y-108005001D01*
X91964003Y-108005001D02*
X80479002Y-96520000D01*
X80479002Y-96520000D02*
X75325002Y-96520000D01*
X75325002Y-96520000D02*
X69120001Y-102725001D01*
X62374999Y-102725001D02*
X60960000Y-104140000D01*
X120594999Y-108005001D02*
X91964003Y-108005001D01*
X69120001Y-102725001D02*
X62374999Y-102725001D01*
%TO.N,Net-(J0-Pad4)*%
X76200000Y-76703161D02*
X76200000Y-77120000D01*
X22860000Y-68580000D02*
X30480000Y-68580000D01*
X30480000Y-68580000D02*
X50800000Y-88900000D01*
%TO.N,Net-(J2-Pad3)*%
X106244990Y-119815010D02*
X89335010Y-119815010D01*
X86360000Y-116840000D02*
X85184999Y-115664999D01*
X89335010Y-119815010D02*
X86360000Y-116840000D01*
X85184999Y-115664999D02*
X85184999Y-105504999D01*
X85184999Y-105504999D02*
X83820000Y-104140000D01*
X106680000Y-119380000D02*
X106244990Y-119815010D01*
%TO.N,Net-(J2-Pad4)*%
X78740000Y-91440000D02*
X68580000Y-101600000D01*
%TO.N,Net-(R1-Pad1)*%
X73660000Y-104140000D02*
X68580000Y-104140000D01*
X78740000Y-99060000D02*
X73660000Y-104140000D01*
%TO.N,Net-(J2-Pad5)*%
X80295374Y-102964990D02*
X85184990Y-102964990D01*
X57005001Y-82694999D02*
X55880000Y-83820000D01*
X61210003Y-82694999D02*
X57005001Y-82694999D01*
X85184990Y-102964990D02*
X86360000Y-104140000D01*
X55880000Y-83820000D02*
X55880000Y-101015000D01*
X62085001Y-81820001D02*
X61210003Y-82694999D01*
X77705365Y-105554999D02*
X80295374Y-102964990D01*
X62085001Y-74785001D02*
X60960000Y-73660000D01*
X60419999Y-105554999D02*
X77705365Y-105554999D01*
X55880000Y-101015000D02*
X60419999Y-105554999D01*
X62085001Y-74785001D02*
X62085001Y-81820001D01*
%TO.N,Net-(J2-Pad1)*%
X82644999Y-118204999D02*
X82644999Y-105504999D01*
X86360000Y-121920000D02*
X82644999Y-118204999D01*
X82644999Y-105504999D02*
X81280000Y-104140000D01*
%TD*%
M02*
