%TF.GenerationSoftware,KiCad,Pcbnew,(5.99.0-7306-g4b2d9a5054)*%
%TF.CreationDate,2020-12-03T04:12:58-05:00*%
%TF.ProjectId,CaRFID,43615246-4944-42e6-9b69-6361645f7063,rev?*%
%TF.SameCoordinates,Original*%
%TF.FileFunction,Legend,Top*%
%TF.FilePolarity,Positive*%
%FSLAX46Y46*%
G04 Gerber Fmt 4.6, Leading zero omitted, Abs format (unit mm)*
G04 Created by KiCad (PCBNEW (5.99.0-7306-g4b2d9a5054)) date 2020-12-03 04:12:58*
%MOMM*%
%LPD*%
G01*
G04 APERTURE LIST*
%ADD10C,0.250000*%
%ADD11C,0.500000*%
%ADD12C,0.015000*%
%ADD13C,0.150000*%
%ADD14C,0.200000*%
%ADD15C,0.152400*%
%ADD16C,0.120000*%
%ADD17C,0.127000*%
%ADD18C,0.300000*%
G04 APERTURE END LIST*
D10*
X112682857Y-125138571D02*
X112682857Y-123638571D01*
X112682857Y-124210000D02*
X112968571Y-124138571D01*
X113540000Y-124138571D01*
X113825714Y-124210000D01*
X113968571Y-124281428D01*
X114111428Y-124424285D01*
X114111428Y-124852857D01*
X113968571Y-124995714D01*
X113825714Y-125067142D01*
X113540000Y-125138571D01*
X112968571Y-125138571D01*
X112682857Y-125067142D01*
X115111428Y-124138571D02*
X115825714Y-125138571D01*
X116540000Y-124138571D02*
X115825714Y-125138571D01*
X115540000Y-125495714D01*
X115397142Y-125567142D01*
X115111428Y-125638571D01*
X121397142Y-125138571D02*
X119968571Y-125138571D01*
X119968571Y-123638571D01*
X123540000Y-125067142D02*
X123254285Y-125138571D01*
X122682857Y-125138571D01*
X122397142Y-125067142D01*
X122254285Y-124924285D01*
X122254285Y-124352857D01*
X122397142Y-124210000D01*
X122682857Y-124138571D01*
X123254285Y-124138571D01*
X123540000Y-124210000D01*
X123682857Y-124352857D01*
X123682857Y-124495714D01*
X122254285Y-124638571D01*
X124682857Y-124138571D02*
X125397142Y-125138571D01*
X126111428Y-124138571D01*
X127254285Y-125138571D02*
X127254285Y-124138571D01*
X127254285Y-123638571D02*
X127111428Y-123710000D01*
X127254285Y-123781428D01*
X127397142Y-123710000D01*
X127254285Y-123638571D01*
X127254285Y-123781428D01*
X130968571Y-125138571D02*
X130968571Y-123638571D01*
X132111428Y-123638571D01*
X132397142Y-123710000D01*
X132540000Y-123781428D01*
X132682857Y-123924285D01*
X132682857Y-124138571D01*
X132540000Y-124281428D01*
X132397142Y-124352857D01*
X132111428Y-124424285D01*
X130968571Y-124424285D01*
X133968571Y-125138571D02*
X133968571Y-124138571D01*
X133968571Y-123638571D02*
X133825714Y-123710000D01*
X133968571Y-123781428D01*
X134111428Y-123710000D01*
X133968571Y-123638571D01*
X133968571Y-123781428D01*
X135397142Y-124138571D02*
X135397142Y-125138571D01*
X135397142Y-124281428D02*
X135540000Y-124210000D01*
X135825714Y-124138571D01*
X136254285Y-124138571D01*
X136540000Y-124210000D01*
X136682857Y-124352857D01*
X136682857Y-125138571D01*
X138111428Y-125138571D02*
X138111428Y-123638571D01*
X138397142Y-124567142D02*
X139254285Y-125138571D01*
X139254285Y-124138571D02*
X138111428Y-124710000D01*
X141825714Y-125138571D02*
X141825714Y-124352857D01*
X141682857Y-124210000D01*
X141397142Y-124138571D01*
X140825714Y-124138571D01*
X140540000Y-124210000D01*
X141825714Y-125067142D02*
X141540000Y-125138571D01*
X140825714Y-125138571D01*
X140540000Y-125067142D01*
X140397142Y-124924285D01*
X140397142Y-124781428D01*
X140540000Y-124638571D01*
X140825714Y-124567142D01*
X141540000Y-124567142D01*
X141825714Y-124495714D01*
X143254285Y-125138571D02*
X143254285Y-124138571D01*
X143254285Y-124424285D02*
X143397142Y-124281428D01*
X143540000Y-124210000D01*
X143825714Y-124138571D01*
X144111428Y-124138571D01*
X146397142Y-125138571D02*
X146397142Y-123638571D01*
X146397142Y-125067142D02*
X146111428Y-125138571D01*
X145540000Y-125138571D01*
X145254285Y-125067142D01*
X145111428Y-124995714D01*
X144968571Y-124852857D01*
X144968571Y-124424285D01*
X145111428Y-124281428D01*
X145254285Y-124210000D01*
X145540000Y-124138571D01*
X146111428Y-124138571D01*
X146397142Y-124210000D01*
D11*
X75249523Y-52942857D02*
X74773333Y-53228571D01*
X73344761Y-53514285D01*
X72392380Y-53514285D01*
X70963809Y-53228571D01*
X70011428Y-52657142D01*
X69535238Y-52085714D01*
X69059047Y-50942857D01*
X69059047Y-50085714D01*
X69535238Y-48942857D01*
X70011428Y-48371428D01*
X70963809Y-47800000D01*
X72392380Y-47514285D01*
X73344761Y-47514285D01*
X74773333Y-47800000D01*
X75249523Y-48085714D01*
X83820952Y-53514285D02*
X83820952Y-50371428D01*
X83344761Y-49800000D01*
X82392380Y-49514285D01*
X80487619Y-49514285D01*
X79535238Y-49800000D01*
X83820952Y-53228571D02*
X82868571Y-53514285D01*
X80487619Y-53514285D01*
X79535238Y-53228571D01*
X79059047Y-52657142D01*
X79059047Y-52085714D01*
X79535238Y-51514285D01*
X80487619Y-51228571D01*
X82868571Y-51228571D01*
X83820952Y-50942857D01*
X88582857Y-53514285D02*
X88582857Y-49514285D01*
X88582857Y-50657142D02*
X89059047Y-50085714D01*
X89535238Y-49800000D01*
X90487619Y-49514285D01*
X91440000Y-49514285D01*
X98106666Y-50371428D02*
X94773333Y-50371428D01*
X94773333Y-53514285D02*
X94773333Y-47514285D01*
X99535238Y-47514285D01*
X103344761Y-53514285D02*
X103344761Y-47514285D01*
X108106666Y-53514285D02*
X108106666Y-47514285D01*
X110487619Y-47514285D01*
X111916190Y-47800000D01*
X112868571Y-48371428D01*
X113344761Y-48942857D01*
X113820952Y-50085714D01*
X113820952Y-50942857D01*
X113344761Y-52085714D01*
X112868571Y-52657142D01*
X111916190Y-53228571D01*
X110487619Y-53514285D01*
X108106666Y-53514285D01*
D12*
%TO.C,U1*%
X25069404Y-58593990D02*
X25069404Y-59922769D01*
X25147567Y-60079096D01*
X25225731Y-60157259D01*
X25382058Y-60235423D01*
X25694712Y-60235423D01*
X25851039Y-60157259D01*
X25929202Y-60079096D01*
X26007366Y-59922769D01*
X26007366Y-58593990D01*
X27648799Y-60235423D02*
X26710837Y-60235423D01*
X27179818Y-60235423D02*
X27179818Y-58593990D01*
X27023491Y-58828480D01*
X26867164Y-58984807D01*
X26710837Y-59062970D01*
D13*
%TO.C,SW0*%
X25256666Y-47504761D02*
X25399523Y-47552380D01*
X25637619Y-47552380D01*
X25732857Y-47504761D01*
X25780476Y-47457142D01*
X25828095Y-47361904D01*
X25828095Y-47266666D01*
X25780476Y-47171428D01*
X25732857Y-47123809D01*
X25637619Y-47076190D01*
X25447142Y-47028571D01*
X25351904Y-46980952D01*
X25304285Y-46933333D01*
X25256666Y-46838095D01*
X25256666Y-46742857D01*
X25304285Y-46647619D01*
X25351904Y-46600000D01*
X25447142Y-46552380D01*
X25685238Y-46552380D01*
X25828095Y-46600000D01*
X26161428Y-46552380D02*
X26399523Y-47552380D01*
X26590000Y-46838095D01*
X26780476Y-47552380D01*
X27018571Y-46552380D01*
X27590000Y-46552380D02*
X27685238Y-46552380D01*
X27780476Y-46600000D01*
X27828095Y-46647619D01*
X27875714Y-46742857D01*
X27923333Y-46933333D01*
X27923333Y-47171428D01*
X27875714Y-47361904D01*
X27828095Y-47457142D01*
X27780476Y-47504761D01*
X27685238Y-47552380D01*
X27590000Y-47552380D01*
X27494761Y-47504761D01*
X27447142Y-47457142D01*
X27399523Y-47361904D01*
X27351904Y-47171428D01*
X27351904Y-46933333D01*
X27399523Y-46742857D01*
X27447142Y-46647619D01*
X27494761Y-46600000D01*
X27590000Y-46552380D01*
%TO.C,SW1*%
X103996666Y-113544761D02*
X104139523Y-113592380D01*
X104377619Y-113592380D01*
X104472857Y-113544761D01*
X104520476Y-113497142D01*
X104568095Y-113401904D01*
X104568095Y-113306666D01*
X104520476Y-113211428D01*
X104472857Y-113163809D01*
X104377619Y-113116190D01*
X104187142Y-113068571D01*
X104091904Y-113020952D01*
X104044285Y-112973333D01*
X103996666Y-112878095D01*
X103996666Y-112782857D01*
X104044285Y-112687619D01*
X104091904Y-112640000D01*
X104187142Y-112592380D01*
X104425238Y-112592380D01*
X104568095Y-112640000D01*
X104901428Y-112592380D02*
X105139523Y-113592380D01*
X105330000Y-112878095D01*
X105520476Y-113592380D01*
X105758571Y-112592380D01*
X106663333Y-113592380D02*
X106091904Y-113592380D01*
X106377619Y-113592380D02*
X106377619Y-112592380D01*
X106282380Y-112735238D01*
X106187142Y-112830476D01*
X106091904Y-112878095D01*
%TO.C,SW2*%
X93836666Y-113544761D02*
X93979523Y-113592380D01*
X94217619Y-113592380D01*
X94312857Y-113544761D01*
X94360476Y-113497142D01*
X94408095Y-113401904D01*
X94408095Y-113306666D01*
X94360476Y-113211428D01*
X94312857Y-113163809D01*
X94217619Y-113116190D01*
X94027142Y-113068571D01*
X93931904Y-113020952D01*
X93884285Y-112973333D01*
X93836666Y-112878095D01*
X93836666Y-112782857D01*
X93884285Y-112687619D01*
X93931904Y-112640000D01*
X94027142Y-112592380D01*
X94265238Y-112592380D01*
X94408095Y-112640000D01*
X94741428Y-112592380D02*
X94979523Y-113592380D01*
X95170000Y-112878095D01*
X95360476Y-113592380D01*
X95598571Y-112592380D01*
X95931904Y-112687619D02*
X95979523Y-112640000D01*
X96074761Y-112592380D01*
X96312857Y-112592380D01*
X96408095Y-112640000D01*
X96455714Y-112687619D01*
X96503333Y-112782857D01*
X96503333Y-112878095D01*
X96455714Y-113020952D01*
X95884285Y-113592380D01*
X96503333Y-113592380D01*
%TO.C,D0*%
X107131904Y-83112380D02*
X107131904Y-82112380D01*
X107370000Y-82112380D01*
X107512857Y-82160000D01*
X107608095Y-82255238D01*
X107655714Y-82350476D01*
X107703333Y-82540952D01*
X107703333Y-82683809D01*
X107655714Y-82874285D01*
X107608095Y-82969523D01*
X107512857Y-83064761D01*
X107370000Y-83112380D01*
X107131904Y-83112380D01*
X108322380Y-82112380D02*
X108417619Y-82112380D01*
X108512857Y-82160000D01*
X108560476Y-82207619D01*
X108608095Y-82302857D01*
X108655714Y-82493333D01*
X108655714Y-82731428D01*
X108608095Y-82921904D01*
X108560476Y-83017142D01*
X108512857Y-83064761D01*
X108417619Y-83112380D01*
X108322380Y-83112380D01*
X108227142Y-83064761D01*
X108179523Y-83017142D01*
X108131904Y-82921904D01*
X108084285Y-82731428D01*
X108084285Y-82493333D01*
X108131904Y-82302857D01*
X108179523Y-82207619D01*
X108227142Y-82160000D01*
X108322380Y-82112380D01*
%TO.C,D1*%
X107131904Y-95812380D02*
X107131904Y-94812380D01*
X107370000Y-94812380D01*
X107512857Y-94860000D01*
X107608095Y-94955238D01*
X107655714Y-95050476D01*
X107703333Y-95240952D01*
X107703333Y-95383809D01*
X107655714Y-95574285D01*
X107608095Y-95669523D01*
X107512857Y-95764761D01*
X107370000Y-95812380D01*
X107131904Y-95812380D01*
X108655714Y-95812380D02*
X108084285Y-95812380D01*
X108370000Y-95812380D02*
X108370000Y-94812380D01*
X108274761Y-94955238D01*
X108179523Y-95050476D01*
X108084285Y-95098095D01*
%TO.C,J1*%
X46552380Y-62643333D02*
X47266666Y-62643333D01*
X47409523Y-62690952D01*
X47504761Y-62786190D01*
X47552380Y-62929047D01*
X47552380Y-63024285D01*
X47552380Y-61643333D02*
X47552380Y-62214761D01*
X47552380Y-61929047D02*
X46552380Y-61929047D01*
X46695238Y-62024285D01*
X46790476Y-62119523D01*
X46838095Y-62214761D01*
%TO.C,C0*%
X35207142Y-100766666D02*
X35254761Y-100814285D01*
X35302380Y-100957142D01*
X35302380Y-101052380D01*
X35254761Y-101195238D01*
X35159523Y-101290476D01*
X35064285Y-101338095D01*
X34873809Y-101385714D01*
X34730952Y-101385714D01*
X34540476Y-101338095D01*
X34445238Y-101290476D01*
X34350000Y-101195238D01*
X34302380Y-101052380D01*
X34302380Y-100957142D01*
X34350000Y-100814285D01*
X34397619Y-100766666D01*
X34302380Y-100147619D02*
X34302380Y-100052380D01*
X34350000Y-99957142D01*
X34397619Y-99909523D01*
X34492857Y-99861904D01*
X34683333Y-99814285D01*
X34921428Y-99814285D01*
X35111904Y-99861904D01*
X35207142Y-99909523D01*
X35254761Y-99957142D01*
X35302380Y-100052380D01*
X35302380Y-100147619D01*
X35254761Y-100242857D01*
X35207142Y-100290476D01*
X35111904Y-100338095D01*
X34921428Y-100385714D01*
X34683333Y-100385714D01*
X34492857Y-100338095D01*
X34397619Y-100290476D01*
X34350000Y-100242857D01*
X34302380Y-100147619D01*
%TO.C,K2*%
X117632380Y-89678095D02*
X116632380Y-89678095D01*
X117632380Y-89106666D02*
X117060952Y-89535238D01*
X116632380Y-89106666D02*
X117203809Y-89678095D01*
X116727619Y-88725714D02*
X116680000Y-88678095D01*
X116632380Y-88582857D01*
X116632380Y-88344761D01*
X116680000Y-88249523D01*
X116727619Y-88201904D01*
X116822857Y-88154285D01*
X116918095Y-88154285D01*
X117060952Y-88201904D01*
X117632380Y-88773333D01*
X117632380Y-88154285D01*
%TO.C,K0*%
X117632380Y-69358095D02*
X116632380Y-69358095D01*
X117632380Y-68786666D02*
X117060952Y-69215238D01*
X116632380Y-68786666D02*
X117203809Y-69358095D01*
X116632380Y-68167619D02*
X116632380Y-68072380D01*
X116680000Y-67977142D01*
X116727619Y-67929523D01*
X116822857Y-67881904D01*
X117013333Y-67834285D01*
X117251428Y-67834285D01*
X117441904Y-67881904D01*
X117537142Y-67929523D01*
X117584761Y-67977142D01*
X117632380Y-68072380D01*
X117632380Y-68167619D01*
X117584761Y-68262857D01*
X117537142Y-68310476D01*
X117441904Y-68358095D01*
X117251428Y-68405714D01*
X117013333Y-68405714D01*
X116822857Y-68358095D01*
X116727619Y-68310476D01*
X116680000Y-68262857D01*
X116632380Y-68167619D01*
%TO.C,J2*%
X77962380Y-105743333D02*
X78676666Y-105743333D01*
X78819523Y-105790952D01*
X78914761Y-105886190D01*
X78962380Y-106029047D01*
X78962380Y-106124285D01*
X78057619Y-105314761D02*
X78010000Y-105267142D01*
X77962380Y-105171904D01*
X77962380Y-104933809D01*
X78010000Y-104838571D01*
X78057619Y-104790952D01*
X78152857Y-104743333D01*
X78248095Y-104743333D01*
X78390952Y-104790952D01*
X78962380Y-105362380D01*
X78962380Y-104743333D01*
%TO.C,K4*%
X117632380Y-109998095D02*
X116632380Y-109998095D01*
X117632380Y-109426666D02*
X117060952Y-109855238D01*
X116632380Y-109426666D02*
X117203809Y-109998095D01*
X116965714Y-108569523D02*
X117632380Y-108569523D01*
X116584761Y-108807619D02*
X117299047Y-109045714D01*
X117299047Y-108426666D01*
%TO.C,U0*%
X64008095Y-70782380D02*
X64008095Y-71591904D01*
X64055714Y-71687142D01*
X64103333Y-71734761D01*
X64198571Y-71782380D01*
X64389047Y-71782380D01*
X64484285Y-71734761D01*
X64531904Y-71687142D01*
X64579523Y-71591904D01*
X64579523Y-70782380D01*
X65246190Y-70782380D02*
X65341428Y-70782380D01*
X65436666Y-70830000D01*
X65484285Y-70877619D01*
X65531904Y-70972857D01*
X65579523Y-71163333D01*
X65579523Y-71401428D01*
X65531904Y-71591904D01*
X65484285Y-71687142D01*
X65436666Y-71734761D01*
X65341428Y-71782380D01*
X65246190Y-71782380D01*
X65150952Y-71734761D01*
X65103333Y-71687142D01*
X65055714Y-71591904D01*
X65008095Y-71401428D01*
X65008095Y-71163333D01*
X65055714Y-70972857D01*
X65103333Y-70877619D01*
X65150952Y-70830000D01*
X65246190Y-70782380D01*
%TO.C,R2*%
X76033333Y-114572380D02*
X75700000Y-114096190D01*
X75461904Y-114572380D02*
X75461904Y-113572380D01*
X75842857Y-113572380D01*
X75938095Y-113620000D01*
X75985714Y-113667619D01*
X76033333Y-113762857D01*
X76033333Y-113905714D01*
X75985714Y-114000952D01*
X75938095Y-114048571D01*
X75842857Y-114096190D01*
X75461904Y-114096190D01*
X76414285Y-113667619D02*
X76461904Y-113620000D01*
X76557142Y-113572380D01*
X76795238Y-113572380D01*
X76890476Y-113620000D01*
X76938095Y-113667619D01*
X76985714Y-113762857D01*
X76985714Y-113858095D01*
X76938095Y-114000952D01*
X76366666Y-114572380D01*
X76985714Y-114572380D01*
%TO.C,R4*%
X40473333Y-92072380D02*
X40140000Y-91596190D01*
X39901904Y-92072380D02*
X39901904Y-91072380D01*
X40282857Y-91072380D01*
X40378095Y-91120000D01*
X40425714Y-91167619D01*
X40473333Y-91262857D01*
X40473333Y-91405714D01*
X40425714Y-91500952D01*
X40378095Y-91548571D01*
X40282857Y-91596190D01*
X39901904Y-91596190D01*
X41330476Y-91405714D02*
X41330476Y-92072380D01*
X41092380Y-91024761D02*
X40854285Y-91739047D01*
X41473333Y-91739047D01*
%TO.C,K1*%
X117632380Y-79518095D02*
X116632380Y-79518095D01*
X117632380Y-78946666D02*
X117060952Y-79375238D01*
X116632380Y-78946666D02*
X117203809Y-79518095D01*
X117632380Y-77994285D02*
X117632380Y-78565714D01*
X117632380Y-78280000D02*
X116632380Y-78280000D01*
X116775238Y-78375238D01*
X116870476Y-78470476D01*
X116918095Y-78565714D01*
%TO.C,R0*%
X88733333Y-89172380D02*
X88400000Y-88696190D01*
X88161904Y-89172380D02*
X88161904Y-88172380D01*
X88542857Y-88172380D01*
X88638095Y-88220000D01*
X88685714Y-88267619D01*
X88733333Y-88362857D01*
X88733333Y-88505714D01*
X88685714Y-88600952D01*
X88638095Y-88648571D01*
X88542857Y-88696190D01*
X88161904Y-88696190D01*
X89352380Y-88172380D02*
X89447619Y-88172380D01*
X89542857Y-88220000D01*
X89590476Y-88267619D01*
X89638095Y-88362857D01*
X89685714Y-88553333D01*
X89685714Y-88791428D01*
X89638095Y-88981904D01*
X89590476Y-89077142D01*
X89542857Y-89124761D01*
X89447619Y-89172380D01*
X89352380Y-89172380D01*
X89257142Y-89124761D01*
X89209523Y-89077142D01*
X89161904Y-88981904D01*
X89114285Y-88791428D01*
X89114285Y-88553333D01*
X89161904Y-88362857D01*
X89209523Y-88267619D01*
X89257142Y-88220000D01*
X89352380Y-88172380D01*
%TO.C,J3*%
X147132380Y-90693333D02*
X147846666Y-90693333D01*
X147989523Y-90740952D01*
X148084761Y-90836190D01*
X148132380Y-90979047D01*
X148132380Y-91074285D01*
X147132380Y-90312380D02*
X147132380Y-89693333D01*
X147513333Y-90026666D01*
X147513333Y-89883809D01*
X147560952Y-89788571D01*
X147608571Y-89740952D01*
X147703809Y-89693333D01*
X147941904Y-89693333D01*
X148037142Y-89740952D01*
X148084761Y-89788571D01*
X148132380Y-89883809D01*
X148132380Y-90169523D01*
X148084761Y-90264761D01*
X148037142Y-90312380D01*
%TO.C,F0*%
X45266666Y-48058571D02*
X44933333Y-48058571D01*
X44933333Y-48582380D02*
X44933333Y-47582380D01*
X45409523Y-47582380D01*
X45980952Y-47582380D02*
X46076190Y-47582380D01*
X46171428Y-47630000D01*
X46219047Y-47677619D01*
X46266666Y-47772857D01*
X46314285Y-47963333D01*
X46314285Y-48201428D01*
X46266666Y-48391904D01*
X46219047Y-48487142D01*
X46171428Y-48534761D01*
X46076190Y-48582380D01*
X45980952Y-48582380D01*
X45885714Y-48534761D01*
X45838095Y-48487142D01*
X45790476Y-48391904D01*
X45742857Y-48201428D01*
X45742857Y-47963333D01*
X45790476Y-47772857D01*
X45838095Y-47677619D01*
X45885714Y-47630000D01*
X45980952Y-47582380D01*
%TO.C,R3*%
X76033333Y-127452380D02*
X75700000Y-126976190D01*
X75461904Y-127452380D02*
X75461904Y-126452380D01*
X75842857Y-126452380D01*
X75938095Y-126500000D01*
X75985714Y-126547619D01*
X76033333Y-126642857D01*
X76033333Y-126785714D01*
X75985714Y-126880952D01*
X75938095Y-126928571D01*
X75842857Y-126976190D01*
X75461904Y-126976190D01*
X76366666Y-126452380D02*
X76985714Y-126452380D01*
X76652380Y-126833333D01*
X76795238Y-126833333D01*
X76890476Y-126880952D01*
X76938095Y-126928571D01*
X76985714Y-127023809D01*
X76985714Y-127261904D01*
X76938095Y-127357142D01*
X76890476Y-127404761D01*
X76795238Y-127452380D01*
X76509523Y-127452380D01*
X76414285Y-127404761D01*
X76366666Y-127357142D01*
D12*
%TO.C,SW3*%
X19027241Y-81101273D02*
X19074860Y-80958416D01*
X19074860Y-80720320D01*
X19027241Y-80625082D01*
X18979622Y-80577463D01*
X18884384Y-80529844D01*
X18789146Y-80529844D01*
X18693908Y-80577463D01*
X18646289Y-80625082D01*
X18598670Y-80720320D01*
X18551051Y-80910797D01*
X18503432Y-81006035D01*
X18455813Y-81053654D01*
X18360575Y-81101273D01*
X18265337Y-81101273D01*
X18170099Y-81053654D01*
X18122480Y-81006035D01*
X18074860Y-80910797D01*
X18074860Y-80672701D01*
X18122480Y-80529844D01*
X18074860Y-80196511D02*
X19074860Y-79958416D01*
X18360575Y-79767940D01*
X19074860Y-79577463D01*
X18074860Y-79339368D01*
X18074860Y-79053654D02*
X18074860Y-78434606D01*
X18455813Y-78767940D01*
X18455813Y-78625082D01*
X18503432Y-78529844D01*
X18551051Y-78482225D01*
X18646289Y-78434606D01*
X18884384Y-78434606D01*
X18979622Y-78482225D01*
X19027241Y-78529844D01*
X19074860Y-78625082D01*
X19074860Y-78910797D01*
X19027241Y-79006035D01*
X18979622Y-79053654D01*
D13*
%TO.C,R1*%
X88733333Y-96792380D02*
X88400000Y-96316190D01*
X88161904Y-96792380D02*
X88161904Y-95792380D01*
X88542857Y-95792380D01*
X88638095Y-95840000D01*
X88685714Y-95887619D01*
X88733333Y-95982857D01*
X88733333Y-96125714D01*
X88685714Y-96220952D01*
X88638095Y-96268571D01*
X88542857Y-96316190D01*
X88161904Y-96316190D01*
X89685714Y-96792380D02*
X89114285Y-96792380D01*
X89400000Y-96792380D02*
X89400000Y-95792380D01*
X89304761Y-95935238D01*
X89209523Y-96030476D01*
X89114285Y-96078095D01*
%TO.C,K3*%
X117632380Y-99838095D02*
X116632380Y-99838095D01*
X117632380Y-99266666D02*
X117060952Y-99695238D01*
X116632380Y-99266666D02*
X117203809Y-99838095D01*
X116632380Y-98933333D02*
X116632380Y-98314285D01*
X117013333Y-98647619D01*
X117013333Y-98504761D01*
X117060952Y-98409523D01*
X117108571Y-98361904D01*
X117203809Y-98314285D01*
X117441904Y-98314285D01*
X117537142Y-98361904D01*
X117584761Y-98409523D01*
X117632380Y-98504761D01*
X117632380Y-98790476D01*
X117584761Y-98885714D01*
X117537142Y-98933333D01*
%TO.C,J0*%
X78552380Y-75453333D02*
X79266666Y-75453333D01*
X79409523Y-75500952D01*
X79504761Y-75596190D01*
X79552380Y-75739047D01*
X79552380Y-75834285D01*
X78552380Y-74786666D02*
X78552380Y-74691428D01*
X78600000Y-74596190D01*
X78647619Y-74548571D01*
X78742857Y-74500952D01*
X78933333Y-74453333D01*
X79171428Y-74453333D01*
X79361904Y-74500952D01*
X79457142Y-74548571D01*
X79504761Y-74596190D01*
X79552380Y-74691428D01*
X79552380Y-74786666D01*
X79504761Y-74881904D01*
X79457142Y-74929523D01*
X79361904Y-74977142D01*
X79171428Y-75024761D01*
X78933333Y-75024761D01*
X78742857Y-74977142D01*
X78647619Y-74929523D01*
X78600000Y-74881904D01*
X78552380Y-74786666D01*
%TO.C,Y0*%
X49221190Y-104516190D02*
X49697380Y-104516190D01*
X48697380Y-104849523D02*
X49221190Y-104516190D01*
X48697380Y-104182857D01*
X48697380Y-103659047D02*
X48697380Y-103563809D01*
X48745000Y-103468571D01*
X48792619Y-103420952D01*
X48887857Y-103373333D01*
X49078333Y-103325714D01*
X49316428Y-103325714D01*
X49506904Y-103373333D01*
X49602142Y-103420952D01*
X49649761Y-103468571D01*
X49697380Y-103563809D01*
X49697380Y-103659047D01*
X49649761Y-103754285D01*
X49602142Y-103801904D01*
X49506904Y-103849523D01*
X49316428Y-103897142D01*
X49078333Y-103897142D01*
X48887857Y-103849523D01*
X48792619Y-103801904D01*
X48745000Y-103754285D01*
X48697380Y-103659047D01*
%TO.C,C1*%
X41707142Y-107846666D02*
X41754761Y-107894285D01*
X41802380Y-108037142D01*
X41802380Y-108132380D01*
X41754761Y-108275238D01*
X41659523Y-108370476D01*
X41564285Y-108418095D01*
X41373809Y-108465714D01*
X41230952Y-108465714D01*
X41040476Y-108418095D01*
X40945238Y-108370476D01*
X40850000Y-108275238D01*
X40802380Y-108132380D01*
X40802380Y-108037142D01*
X40850000Y-107894285D01*
X40897619Y-107846666D01*
X41802380Y-106894285D02*
X41802380Y-107465714D01*
X41802380Y-107180000D02*
X40802380Y-107180000D01*
X40945238Y-107275238D01*
X41040476Y-107370476D01*
X41088095Y-107465714D01*
D14*
%TO.C,U1*%
X21121803Y-63590000D02*
G75*
G03*
X21121803Y-63590000I-111803J0D01*
G01*
D15*
X21410000Y-71140000D02*
X21410000Y-60833000D01*
X26010000Y-71140000D02*
X21410000Y-71140000D01*
X26010000Y-60833000D02*
X26010000Y-71140000D01*
X21410000Y-60833000D02*
X26010000Y-60833000D01*
D16*
%TO.C,SW0*%
X22190000Y-47950000D02*
X23690000Y-47950000D01*
X30750000Y-49190000D02*
X30750000Y-54410000D01*
X29750000Y-48190000D02*
X22430000Y-48190000D01*
X22430000Y-55410000D02*
X29750000Y-55410000D01*
X22430000Y-48190000D02*
X22430000Y-55410000D01*
X22190000Y-49450000D02*
X22190000Y-47950000D01*
X30750000Y-49190000D02*
G75*
G03*
X29750000Y-48190000I-1000000J0D01*
G01*
X29750000Y-55410000D02*
G75*
G03*
X30750000Y-54410000I0J1000000D01*
G01*
%TO.C,SW1*%
X100930000Y-115490000D02*
X100930000Y-113990000D01*
X108490000Y-114230000D02*
X101170000Y-114230000D01*
X109490000Y-115230000D02*
X109490000Y-120450000D01*
X100930000Y-113990000D02*
X102430000Y-113990000D01*
X101170000Y-121450000D02*
X108490000Y-121450000D01*
X101170000Y-114230000D02*
X101170000Y-121450000D01*
X108490000Y-121450000D02*
G75*
G03*
X109490000Y-120450000I0J1000000D01*
G01*
X109490000Y-115230000D02*
G75*
G03*
X108490000Y-114230000I-1000000J0D01*
G01*
%TO.C,SW2*%
X98330000Y-114230000D02*
X91010000Y-114230000D01*
X91010000Y-114230000D02*
X91010000Y-121450000D01*
X91010000Y-121450000D02*
X98330000Y-121450000D01*
X99330000Y-115230000D02*
X99330000Y-120450000D01*
X90770000Y-115490000D02*
X90770000Y-113990000D01*
X90770000Y-113990000D02*
X92270000Y-113990000D01*
X99330000Y-115230000D02*
G75*
G03*
X98330000Y-114230000I-1000000J0D01*
G01*
X98330000Y-121450000D02*
G75*
G03*
X99330000Y-120450000I0J1000000D01*
G01*
%TO.C,D0*%
X103470000Y-85010000D02*
X103470000Y-83510000D01*
X111030000Y-83750000D02*
X103710000Y-83750000D01*
X103710000Y-90970000D02*
X111030000Y-90970000D01*
X112030000Y-84750000D02*
X112030000Y-89970000D01*
X103710000Y-83750000D02*
X103710000Y-90970000D01*
X103470000Y-83510000D02*
X104970000Y-83510000D01*
X111030000Y-90970000D02*
G75*
G03*
X112030000Y-89970000I0J1000000D01*
G01*
X112030000Y-84750000D02*
G75*
G03*
X111030000Y-83750000I-1000000J0D01*
G01*
%TO.C,D1*%
X103470000Y-97710000D02*
X103470000Y-96210000D01*
X103710000Y-96450000D02*
X103710000Y-103670000D01*
X103470000Y-96210000D02*
X104970000Y-96210000D01*
X111030000Y-96450000D02*
X103710000Y-96450000D01*
X103710000Y-103670000D02*
X111030000Y-103670000D01*
X112030000Y-97450000D02*
X112030000Y-102670000D01*
X112030000Y-97450000D02*
G75*
G03*
X111030000Y-96450000I-1000000J0D01*
G01*
X111030000Y-103670000D02*
G75*
G03*
X112030000Y-102670000I0J1000000D01*
G01*
%TO.C,J1*%
X48190000Y-59150000D02*
X48190000Y-66470000D01*
X49190000Y-58150000D02*
X54410000Y-58150000D01*
X47950000Y-66710000D02*
X47950000Y-65210000D01*
X55410000Y-66470000D02*
X55410000Y-59150000D01*
X49450000Y-66710000D02*
X47950000Y-66710000D01*
X48190000Y-66470000D02*
X55410000Y-66470000D01*
X55410000Y-59150000D02*
G75*
G03*
X54410000Y-58150000I-1000000J0D01*
G01*
X49190000Y-58150000D02*
G75*
G03*
X48190000Y-59150000I0J-1000000D01*
G01*
%TO.C,C0*%
X38940000Y-99879000D02*
X40054000Y-99879000D01*
X36481000Y-99279000D02*
X37260000Y-99279000D01*
X36292000Y-99559000D02*
X37260000Y-99559000D01*
X38940000Y-99399000D02*
X39808000Y-99399000D01*
X36038000Y-100320000D02*
X37260000Y-100320000D01*
X38940000Y-100120000D02*
X40125000Y-100120000D01*
X38940000Y-99439000D02*
X39835000Y-99439000D01*
X37020000Y-98799000D02*
X37260000Y-98799000D01*
X36705000Y-102669801D02*
X37105000Y-102669801D01*
X38940000Y-99039000D02*
X39496000Y-99039000D01*
X37563000Y-98559000D02*
X38637000Y-98559000D01*
X36023000Y-100480000D02*
X40177000Y-100480000D01*
X36044000Y-100280000D02*
X37260000Y-100280000D01*
X38940000Y-99759000D02*
X40007000Y-99759000D01*
X36905000Y-102869801D02*
X36905000Y-102469801D01*
X36020000Y-100560000D02*
X40180000Y-100560000D01*
X36106000Y-100000000D02*
X37260000Y-100000000D01*
X36249000Y-99639000D02*
X37260000Y-99639000D01*
X38940000Y-98919000D02*
X39354000Y-98919000D01*
X38940000Y-99960000D02*
X40082000Y-99960000D01*
X37160000Y-98719000D02*
X39040000Y-98719000D01*
X37087000Y-98759000D02*
X39113000Y-98759000D01*
X36365000Y-99439000D02*
X37260000Y-99439000D01*
X37730000Y-98519000D02*
X38470000Y-98519000D01*
X36420000Y-99359000D02*
X37260000Y-99359000D01*
X36704000Y-99039000D02*
X37260000Y-99039000D01*
X36270000Y-99599000D02*
X37260000Y-99599000D01*
X38940000Y-99359000D02*
X39780000Y-99359000D01*
X36095000Y-100040000D02*
X37260000Y-100040000D01*
X38940000Y-100320000D02*
X40162000Y-100320000D01*
X38940000Y-99159000D02*
X39616000Y-99159000D01*
X38940000Y-99119000D02*
X39578000Y-99119000D01*
X38940000Y-100000000D02*
X40094000Y-100000000D01*
X36021000Y-100520000D02*
X40179000Y-100520000D01*
X36548000Y-99199000D02*
X37260000Y-99199000D01*
X38940000Y-98879000D02*
X39300000Y-98879000D01*
X36058000Y-100200000D02*
X37260000Y-100200000D01*
X38940000Y-100400000D02*
X40171000Y-100400000D01*
X38940000Y-99199000D02*
X39652000Y-99199000D01*
X36622000Y-99119000D02*
X37260000Y-99119000D01*
X36900000Y-98879000D02*
X37260000Y-98879000D01*
X37241000Y-98679000D02*
X38959000Y-98679000D01*
X38940000Y-99319000D02*
X39750000Y-99319000D01*
X38940000Y-100280000D02*
X40156000Y-100280000D01*
X37332000Y-98639000D02*
X38868000Y-98639000D01*
X38940000Y-98959000D02*
X39404000Y-98959000D01*
X38940000Y-99239000D02*
X39687000Y-99239000D01*
X36392000Y-99399000D02*
X37260000Y-99399000D01*
X38940000Y-100160000D02*
X40134000Y-100160000D01*
X36584000Y-99159000D02*
X37260000Y-99159000D01*
X36066000Y-100160000D02*
X37260000Y-100160000D01*
X38940000Y-99799000D02*
X40024000Y-99799000D01*
X36146000Y-99879000D02*
X37260000Y-99879000D01*
X38940000Y-99279000D02*
X39719000Y-99279000D01*
X36193000Y-99759000D02*
X37260000Y-99759000D01*
X36340000Y-99479000D02*
X37260000Y-99479000D01*
X38940000Y-100200000D02*
X40142000Y-100200000D01*
X36033000Y-100360000D02*
X37260000Y-100360000D01*
X36315000Y-99519000D02*
X37260000Y-99519000D01*
X38940000Y-100360000D02*
X40167000Y-100360000D01*
X36026000Y-100440000D02*
X40174000Y-100440000D01*
X36176000Y-99799000D02*
X37260000Y-99799000D01*
X38940000Y-99679000D02*
X39970000Y-99679000D01*
X38940000Y-99920000D02*
X40068000Y-99920000D01*
X36958000Y-98839000D02*
X37260000Y-98839000D01*
X36160000Y-99839000D02*
X37260000Y-99839000D01*
X36796000Y-98959000D02*
X37260000Y-98959000D01*
X38940000Y-99079000D02*
X39538000Y-99079000D01*
X36132000Y-99920000D02*
X37260000Y-99920000D01*
X38940000Y-98799000D02*
X39180000Y-98799000D01*
X36050000Y-100240000D02*
X37260000Y-100240000D01*
X38940000Y-100040000D02*
X40105000Y-100040000D01*
X36450000Y-99319000D02*
X37260000Y-99319000D01*
X38940000Y-99599000D02*
X39930000Y-99599000D01*
X36513000Y-99239000D02*
X37260000Y-99239000D01*
X38940000Y-100080000D02*
X40116000Y-100080000D01*
X38940000Y-99519000D02*
X39885000Y-99519000D01*
X36662000Y-99079000D02*
X37260000Y-99079000D01*
X38940000Y-98999000D02*
X39451000Y-98999000D01*
X38940000Y-100240000D02*
X40150000Y-100240000D01*
X36749000Y-98999000D02*
X37260000Y-98999000D01*
X38940000Y-98839000D02*
X39242000Y-98839000D01*
X38940000Y-99559000D02*
X39908000Y-99559000D01*
X36084000Y-100080000D02*
X37260000Y-100080000D01*
X36211000Y-99719000D02*
X37260000Y-99719000D01*
X38940000Y-99719000D02*
X39989000Y-99719000D01*
X36230000Y-99679000D02*
X37260000Y-99679000D01*
X36020000Y-100600000D02*
X40180000Y-100600000D01*
X38940000Y-99839000D02*
X40040000Y-99839000D01*
X38940000Y-99639000D02*
X39951000Y-99639000D01*
X37436000Y-98599000D02*
X38764000Y-98599000D01*
X36029000Y-100400000D02*
X37260000Y-100400000D01*
X36075000Y-100120000D02*
X37260000Y-100120000D01*
X36118000Y-99960000D02*
X37260000Y-99960000D01*
X38940000Y-99479000D02*
X39860000Y-99479000D01*
X36846000Y-98919000D02*
X37260000Y-98919000D01*
X40220000Y-100600000D02*
G75*
G03*
X40220000Y-100600000I-2120000J0D01*
G01*
%TO.C,K2*%
X130780000Y-85040000D02*
X130780000Y-92840000D01*
X118080000Y-85040000D02*
X130780000Y-85040000D01*
X117880000Y-93040000D02*
X117880000Y-90840000D01*
X123190000Y-90018000D02*
X124206000Y-90018000D01*
X123063000Y-87478000D02*
X123698000Y-87478000D01*
X118080000Y-92840000D02*
X118080000Y-85040000D01*
X130780000Y-92840000D02*
X118080000Y-92840000D01*
X123190000Y-88113000D02*
X123190000Y-90018000D01*
X123698000Y-87478000D02*
X123698000Y-88113000D01*
X119980000Y-93040000D02*
X117880000Y-93040000D01*
X123190000Y-88113000D02*
X124206000Y-88113000D01*
X123063000Y-90678000D02*
X123698000Y-90678000D01*
X123698000Y-90678000D02*
X123698000Y-90018000D01*
X123190000Y-88494000D02*
X124206000Y-89129000D01*
X124206000Y-90018000D02*
X124206000Y-88113000D01*
%TO.C,K0*%
X123190000Y-67793000D02*
X124206000Y-67793000D01*
X123063000Y-70358000D02*
X123698000Y-70358000D01*
X118080000Y-72520000D02*
X118080000Y-64720000D01*
X117880000Y-72720000D02*
X117880000Y-70520000D01*
X123698000Y-67158000D02*
X123698000Y-67793000D01*
X130780000Y-64720000D02*
X130780000Y-72520000D01*
X123698000Y-70358000D02*
X123698000Y-69698000D01*
X123190000Y-67793000D02*
X123190000Y-69698000D01*
X130780000Y-72520000D02*
X118080000Y-72520000D01*
X123063000Y-67158000D02*
X123698000Y-67158000D01*
X118080000Y-64720000D02*
X130780000Y-64720000D01*
X124206000Y-69698000D02*
X124206000Y-67793000D01*
X119980000Y-72720000D02*
X117880000Y-72720000D01*
X123190000Y-68174000D02*
X124206000Y-68809000D01*
X123190000Y-69698000D02*
X124206000Y-69698000D01*
%TO.C,J2*%
X79950000Y-104140000D02*
X79950000Y-102810000D01*
X79950000Y-105410000D02*
X82550000Y-105410000D01*
X82550000Y-102810000D02*
X87690000Y-102810000D01*
X87690000Y-108010000D02*
X87690000Y-102810000D01*
X79950000Y-102810000D02*
X81280000Y-102810000D01*
X79950000Y-108010000D02*
X87690000Y-108010000D01*
X79950000Y-108010000D02*
X79950000Y-105410000D01*
X82550000Y-105410000D02*
X82550000Y-102810000D01*
%TO.C,K4*%
X123190000Y-108433000D02*
X123190000Y-110338000D01*
X118080000Y-105360000D02*
X130780000Y-105360000D01*
X130780000Y-105360000D02*
X130780000Y-113160000D01*
X123698000Y-110998000D02*
X123698000Y-110338000D01*
X123190000Y-110338000D02*
X124206000Y-110338000D01*
X123190000Y-108433000D02*
X124206000Y-108433000D01*
X124206000Y-110338000D02*
X124206000Y-108433000D01*
X123190000Y-108814000D02*
X124206000Y-109449000D01*
X130780000Y-113160000D02*
X118080000Y-113160000D01*
X117880000Y-113360000D02*
X117880000Y-111160000D01*
X123063000Y-110998000D02*
X123698000Y-110998000D01*
X119980000Y-113360000D02*
X117880000Y-113360000D01*
X118080000Y-113160000D02*
X118080000Y-105360000D01*
X123698000Y-107798000D02*
X123698000Y-108433000D01*
X123063000Y-107798000D02*
X123698000Y-107798000D01*
%TO.C,U0*%
X62120000Y-72330000D02*
X62120000Y-108010000D01*
X62120000Y-108010000D02*
X67420000Y-108010000D01*
X67420000Y-108010000D02*
X67420000Y-72330000D01*
X67420000Y-72330000D02*
X65770000Y-72330000D01*
X63770000Y-72330000D02*
X62120000Y-72330000D01*
X65770000Y-72330000D02*
G75*
G02*
X63770000Y-72330000I-1000000J0D01*
G01*
%TO.C,R2*%
X67080000Y-116840000D02*
X71580000Y-116840000D01*
X85320000Y-116840000D02*
X80820000Y-116840000D01*
X71580000Y-118560000D02*
X80820000Y-118560000D01*
X80820000Y-115120000D02*
X71580000Y-115120000D01*
X80820000Y-118560000D02*
X80820000Y-115120000D01*
X71580000Y-115120000D02*
X71580000Y-118560000D01*
%TO.C,R4*%
X36020000Y-90620000D02*
X45260000Y-90620000D01*
X36020000Y-87180000D02*
X36020000Y-90620000D01*
X49760000Y-88900000D02*
X45260000Y-88900000D01*
X45260000Y-90620000D02*
X45260000Y-87180000D01*
X31520000Y-88900000D02*
X36020000Y-88900000D01*
X45260000Y-87180000D02*
X36020000Y-87180000D01*
%TO.C,K1*%
X118080000Y-74880000D02*
X130780000Y-74880000D01*
X130780000Y-74880000D02*
X130780000Y-82680000D01*
X123698000Y-80518000D02*
X123698000Y-79858000D01*
X123063000Y-80518000D02*
X123698000Y-80518000D01*
X123063000Y-77318000D02*
X123698000Y-77318000D01*
X123190000Y-77953000D02*
X123190000Y-79858000D01*
X123698000Y-77318000D02*
X123698000Y-77953000D01*
X119980000Y-82880000D02*
X117880000Y-82880000D01*
X124206000Y-79858000D02*
X124206000Y-77953000D01*
X123190000Y-77953000D02*
X124206000Y-77953000D01*
X130780000Y-82680000D02*
X118080000Y-82680000D01*
X123190000Y-78334000D02*
X124206000Y-78969000D01*
X118080000Y-82680000D02*
X118080000Y-74880000D01*
X123190000Y-79858000D02*
X124206000Y-79858000D01*
X117880000Y-82880000D02*
X117880000Y-80680000D01*
%TO.C,R0*%
X98020000Y-91440000D02*
X93520000Y-91440000D01*
X79780000Y-91440000D02*
X84280000Y-91440000D01*
X84280000Y-89720000D02*
X84280000Y-93160000D01*
X84280000Y-93160000D02*
X93520000Y-93160000D01*
X93520000Y-93160000D02*
X93520000Y-89720000D01*
X93520000Y-89720000D02*
X84280000Y-89720000D01*
%TO.C,J3*%
X146790000Y-85760000D02*
X146590000Y-85760000D01*
X142480000Y-84910000D02*
X142480000Y-95810000D01*
X145980000Y-93860000D02*
X146590000Y-93860000D01*
X142480000Y-87360000D02*
X142980000Y-87360000D01*
X142480000Y-93260000D02*
X142980000Y-93260000D01*
X142980000Y-93460000D02*
X142480000Y-93460000D01*
X142480000Y-91260000D02*
X142980000Y-91260000D01*
X142480000Y-87260000D02*
X142980000Y-87260000D01*
X146790000Y-86060000D02*
X146790000Y-85760000D01*
X146690000Y-86060000D02*
X146690000Y-85760000D01*
X145980000Y-84910000D02*
X142480000Y-84910000D01*
X146590000Y-86860000D02*
X145980000Y-86860000D01*
X141870000Y-96420000D02*
X146590000Y-96420000D01*
X142480000Y-89360000D02*
X142980000Y-89360000D01*
X141870000Y-84300000D02*
X141870000Y-96420000D01*
X143980000Y-84300000D02*
X143980000Y-84910000D01*
X142980000Y-87460000D02*
X142480000Y-87460000D01*
X146590000Y-84300000D02*
X141870000Y-84300000D01*
X142980000Y-93260000D02*
X142980000Y-93460000D01*
X145280000Y-96420000D02*
X145280000Y-95810000D01*
X146590000Y-86060000D02*
X146790000Y-86060000D01*
X146890000Y-84000000D02*
X145640000Y-84000000D01*
X142480000Y-89260000D02*
X142980000Y-89260000D01*
X142980000Y-91460000D02*
X142480000Y-91460000D01*
X142980000Y-89460000D02*
X142480000Y-89460000D01*
X142980000Y-87260000D02*
X142980000Y-87460000D01*
X142480000Y-93360000D02*
X142980000Y-93360000D01*
X146590000Y-96420000D02*
X146590000Y-84300000D01*
X142980000Y-91260000D02*
X142980000Y-91460000D01*
X142480000Y-95810000D02*
X145980000Y-95810000D01*
X142480000Y-91360000D02*
X142980000Y-91360000D01*
X142980000Y-89260000D02*
X142980000Y-89460000D01*
X145980000Y-95810000D02*
X145980000Y-93860000D01*
X146890000Y-85250000D02*
X146890000Y-84000000D01*
X145980000Y-86860000D02*
X145980000Y-84910000D01*
X143980000Y-96420000D02*
X143980000Y-95810000D01*
X145280000Y-84300000D02*
X145280000Y-84910000D01*
%TO.C,F0*%
X53700000Y-49030000D02*
X37500000Y-49030000D01*
X37500000Y-49030000D02*
X37500000Y-55970000D01*
X47200000Y-54500000D02*
X44000000Y-54500000D01*
X53700000Y-55970000D02*
X53700000Y-49030000D01*
X44000000Y-50500000D02*
X47200000Y-50500000D01*
X44850000Y-52500000D02*
X46350000Y-52500000D01*
X37500000Y-55970000D02*
X53700000Y-55970000D01*
%TO.C,R3*%
X80820000Y-120200000D02*
X71580000Y-120200000D01*
X71580000Y-123640000D02*
X80820000Y-123640000D01*
X85320000Y-121920000D02*
X80820000Y-121920000D01*
X80820000Y-123640000D02*
X80820000Y-120200000D01*
X67080000Y-121920000D02*
X71580000Y-121920000D01*
X71580000Y-120200000D02*
X71580000Y-123640000D01*
D17*
%TO.C,SW3*%
X25860000Y-81140000D02*
X25860000Y-76340000D01*
X21740000Y-81735000D02*
X24010000Y-81735000D01*
X21710000Y-75745000D02*
X24010000Y-75745000D01*
X19865000Y-80870000D02*
X19865000Y-76370000D01*
D18*
X20860000Y-83559000D02*
G75*
G03*
X20860000Y-83559000I-100000J0D01*
G01*
D16*
%TO.C,R1*%
X98020000Y-99060000D02*
X93520000Y-99060000D01*
X93520000Y-97340000D02*
X84280000Y-97340000D01*
X79780000Y-99060000D02*
X84280000Y-99060000D01*
X84280000Y-100780000D02*
X93520000Y-100780000D01*
X93520000Y-100780000D02*
X93520000Y-97340000D01*
X84280000Y-97340000D02*
X84280000Y-100780000D01*
%TO.C,K3*%
X130780000Y-95200000D02*
X130780000Y-103000000D01*
X123698000Y-97638000D02*
X123698000Y-98273000D01*
X123698000Y-100838000D02*
X123698000Y-100178000D01*
X118080000Y-103000000D02*
X118080000Y-95200000D01*
X124206000Y-100178000D02*
X124206000Y-98273000D01*
X118080000Y-95200000D02*
X130780000Y-95200000D01*
X123190000Y-98654000D02*
X124206000Y-99289000D01*
X123190000Y-100178000D02*
X124206000Y-100178000D01*
X123063000Y-97638000D02*
X123698000Y-97638000D01*
X117880000Y-103200000D02*
X117880000Y-101000000D01*
X130780000Y-103000000D02*
X118080000Y-103000000D01*
X123190000Y-98273000D02*
X124206000Y-98273000D01*
X123063000Y-100838000D02*
X123698000Y-100838000D01*
X119980000Y-103200000D02*
X117880000Y-103200000D01*
X123190000Y-98273000D02*
X123190000Y-100178000D01*
%TO.C,J0*%
X74400000Y-74020000D02*
X74400000Y-74220000D01*
X73290000Y-81180000D02*
X78010000Y-81180000D01*
X74400000Y-72220000D02*
X73900000Y-72220000D01*
X77400000Y-71620000D02*
X77400000Y-69670000D01*
X73900000Y-80570000D02*
X77400000Y-80570000D01*
X73900000Y-74020000D02*
X74400000Y-74020000D01*
X73900000Y-74120000D02*
X74400000Y-74120000D01*
X76700000Y-81180000D02*
X76700000Y-80570000D01*
X78010000Y-81180000D02*
X78010000Y-69060000D01*
X73900000Y-76120000D02*
X74400000Y-76120000D01*
X74400000Y-72020000D02*
X74400000Y-72220000D01*
X75400000Y-81180000D02*
X75400000Y-80570000D01*
X73900000Y-78120000D02*
X74400000Y-78120000D01*
X73900000Y-69670000D02*
X73900000Y-80570000D01*
X73900000Y-78020000D02*
X74400000Y-78020000D01*
X76700000Y-69060000D02*
X76700000Y-69670000D01*
X73900000Y-72120000D02*
X74400000Y-72120000D01*
X77400000Y-80570000D02*
X77400000Y-78620000D01*
X74400000Y-76220000D02*
X73900000Y-76220000D01*
X73290000Y-69060000D02*
X73290000Y-81180000D01*
X74400000Y-78220000D02*
X73900000Y-78220000D01*
X78310000Y-70010000D02*
X78310000Y-68760000D01*
X78010000Y-71620000D02*
X77400000Y-71620000D01*
X78210000Y-70520000D02*
X78010000Y-70520000D01*
X78010000Y-69060000D02*
X73290000Y-69060000D01*
X78010000Y-70820000D02*
X78210000Y-70820000D01*
X78310000Y-68760000D02*
X77060000Y-68760000D01*
X75400000Y-69060000D02*
X75400000Y-69670000D01*
X78210000Y-70820000D02*
X78210000Y-70520000D01*
X73900000Y-72020000D02*
X74400000Y-72020000D01*
X74400000Y-76020000D02*
X74400000Y-76220000D01*
X73900000Y-76020000D02*
X74400000Y-76020000D01*
X77400000Y-69670000D02*
X73900000Y-69670000D01*
X74400000Y-78020000D02*
X74400000Y-78220000D01*
X74400000Y-74220000D02*
X73900000Y-74220000D01*
X77400000Y-78620000D02*
X78010000Y-78620000D01*
X78110000Y-70820000D02*
X78110000Y-70520000D01*
%TO.C,Y0*%
X43195000Y-100915000D02*
X43195000Y-107165000D01*
X48245000Y-100915000D02*
X48245000Y-107165000D01*
X43195000Y-100915000D02*
G75*
G02*
X48245000Y-100915000I2525000J0D01*
G01*
X43195000Y-107165000D02*
G75*
G03*
X48245000Y-107165000I2525000J0D01*
G01*
%TO.C,C1*%
X37260000Y-108040000D02*
X36050000Y-108040000D01*
X38764000Y-109681000D02*
X37436000Y-109681000D01*
X37260000Y-109361000D02*
X36846000Y-109361000D01*
X40125000Y-108160000D02*
X38940000Y-108160000D01*
X40177000Y-107800000D02*
X36023000Y-107800000D01*
X37260000Y-108801000D02*
X36340000Y-108801000D01*
X39808000Y-108881000D02*
X38940000Y-108881000D01*
X37260000Y-108961000D02*
X36450000Y-108961000D01*
X38959000Y-109601000D02*
X37241000Y-109601000D01*
X37260000Y-109001000D02*
X36481000Y-109001000D01*
X40007000Y-108521000D02*
X38940000Y-108521000D01*
X39908000Y-108721000D02*
X38940000Y-108721000D01*
X37260000Y-107960000D02*
X36038000Y-107960000D01*
X37260000Y-108080000D02*
X36058000Y-108080000D01*
X39616000Y-109121000D02*
X38940000Y-109121000D01*
X37260000Y-108000000D02*
X36044000Y-108000000D01*
X37260000Y-108200000D02*
X36084000Y-108200000D01*
X39951000Y-108641000D02*
X38940000Y-108641000D01*
X39354000Y-109361000D02*
X38940000Y-109361000D01*
X39040000Y-109561000D02*
X37160000Y-109561000D01*
X37260000Y-109481000D02*
X37020000Y-109481000D01*
X37260000Y-108240000D02*
X36095000Y-108240000D01*
X37260000Y-109161000D02*
X36622000Y-109161000D01*
X37260000Y-108120000D02*
X36066000Y-108120000D01*
X40174000Y-107840000D02*
X36026000Y-107840000D01*
X37260000Y-108721000D02*
X36292000Y-108721000D01*
X39970000Y-108601000D02*
X38940000Y-108601000D01*
X37260000Y-108921000D02*
X36420000Y-108921000D01*
X37260000Y-108160000D02*
X36075000Y-108160000D01*
X37260000Y-108881000D02*
X36392000Y-108881000D01*
X40179000Y-107760000D02*
X36021000Y-107760000D01*
X40024000Y-108481000D02*
X38940000Y-108481000D01*
X37260000Y-108841000D02*
X36365000Y-108841000D01*
X39300000Y-109401000D02*
X38940000Y-109401000D01*
X40180000Y-107680000D02*
X36020000Y-107680000D01*
X39295000Y-105410199D02*
X39295000Y-105810199D01*
X37260000Y-109081000D02*
X36548000Y-109081000D01*
X40054000Y-108401000D02*
X38940000Y-108401000D01*
X38637000Y-109721000D02*
X37563000Y-109721000D01*
X39885000Y-108761000D02*
X38940000Y-108761000D01*
X39242000Y-109441000D02*
X38940000Y-109441000D01*
X39538000Y-109201000D02*
X38940000Y-109201000D01*
X39652000Y-109081000D02*
X38940000Y-109081000D01*
X40171000Y-107880000D02*
X38940000Y-107880000D01*
X37260000Y-109321000D02*
X36796000Y-109321000D01*
X40156000Y-108000000D02*
X38940000Y-108000000D01*
X40068000Y-108360000D02*
X38940000Y-108360000D01*
X37260000Y-108481000D02*
X36176000Y-108481000D01*
X37260000Y-108441000D02*
X36160000Y-108441000D01*
X39930000Y-108681000D02*
X38940000Y-108681000D01*
X39451000Y-109281000D02*
X38940000Y-109281000D01*
X39687000Y-109041000D02*
X38940000Y-109041000D01*
X39860000Y-108801000D02*
X38940000Y-108801000D01*
X39578000Y-109161000D02*
X38940000Y-109161000D01*
X39750000Y-108961000D02*
X38940000Y-108961000D01*
X40142000Y-108080000D02*
X38940000Y-108080000D01*
X40162000Y-107960000D02*
X38940000Y-107960000D01*
X40094000Y-108280000D02*
X38940000Y-108280000D01*
X37260000Y-108601000D02*
X36230000Y-108601000D01*
X39835000Y-108841000D02*
X38940000Y-108841000D01*
X37260000Y-108401000D02*
X36146000Y-108401000D01*
X37260000Y-109281000D02*
X36749000Y-109281000D01*
X39180000Y-109481000D02*
X38940000Y-109481000D01*
X37260000Y-109241000D02*
X36704000Y-109241000D01*
X37260000Y-108681000D02*
X36270000Y-108681000D01*
X39404000Y-109321000D02*
X38940000Y-109321000D01*
X37260000Y-108561000D02*
X36211000Y-108561000D01*
X37260000Y-107920000D02*
X36033000Y-107920000D01*
X39495000Y-105610199D02*
X39095000Y-105610199D01*
X38868000Y-109641000D02*
X37332000Y-109641000D01*
X40150000Y-108040000D02*
X38940000Y-108040000D01*
X40134000Y-108120000D02*
X38940000Y-108120000D01*
X37260000Y-109121000D02*
X36584000Y-109121000D01*
X38470000Y-109761000D02*
X37730000Y-109761000D01*
X37260000Y-107880000D02*
X36029000Y-107880000D01*
X37260000Y-109441000D02*
X36958000Y-109441000D01*
X37260000Y-109201000D02*
X36662000Y-109201000D01*
X37260000Y-108280000D02*
X36106000Y-108280000D01*
X37260000Y-108320000D02*
X36118000Y-108320000D01*
X37260000Y-108761000D02*
X36315000Y-108761000D01*
X40167000Y-107920000D02*
X38940000Y-107920000D01*
X37260000Y-109401000D02*
X36900000Y-109401000D01*
X40082000Y-108320000D02*
X38940000Y-108320000D01*
X37260000Y-109041000D02*
X36513000Y-109041000D01*
X40180000Y-107720000D02*
X36020000Y-107720000D01*
X40116000Y-108200000D02*
X38940000Y-108200000D01*
X37260000Y-108521000D02*
X36193000Y-108521000D01*
X37260000Y-108641000D02*
X36249000Y-108641000D01*
X39496000Y-109241000D02*
X38940000Y-109241000D01*
X39113000Y-109521000D02*
X37087000Y-109521000D01*
X39780000Y-108921000D02*
X38940000Y-108921000D01*
X39989000Y-108561000D02*
X38940000Y-108561000D01*
X39719000Y-109001000D02*
X38940000Y-109001000D01*
X37260000Y-108360000D02*
X36132000Y-108360000D01*
X40040000Y-108441000D02*
X38940000Y-108441000D01*
X40105000Y-108240000D02*
X38940000Y-108240000D01*
X40220000Y-107680000D02*
G75*
G03*
X40220000Y-107680000I-2120000J0D01*
G01*
%TD*%
M02*
