%TF.GenerationSoftware,KiCad,Pcbnew,(5.99.0-7306-g4b2d9a5054)*%
%TF.CreationDate,2020-12-03T04:12:58-05:00*%
%TF.ProjectId,CaRFID,43615246-4944-42e6-9b69-6361645f7063,rev?*%
%TF.SameCoordinates,Original*%
%TF.FileFunction,Soldermask,Top*%
%TF.FilePolarity,Negative*%
%FSLAX46Y46*%
G04 Gerber Fmt 4.6, Leading zero omitted, Abs format (unit mm)*
G04 Created by KiCad (PCBNEW (5.99.0-7306-g4b2d9a5054)) date 2020-12-03 04:12:58*
%MOMM*%
%LPD*%
G01*
G04 APERTURE LIST*
G04 Aperture macros list*
%AMRoundRect*
0 Rectangle with rounded corners*
0 $1 Rounding radius*
0 $2 $3 $4 $5 $6 $7 $8 $9 X,Y pos of 4 corners*
0 Add a 4 corners polygon primitive as box body*
4,1,4,$2,$3,$4,$5,$6,$7,$8,$9,$2,$3,0*
0 Add four circle primitives for the rounded corners*
1,1,$1+$1,$2,$3,0*
1,1,$1+$1,$4,$5,0*
1,1,$1+$1,$6,$7,0*
1,1,$1+$1,$8,$9,0*
0 Add four rect primitives between the rounded corners*
20,1,$1+$1,$2,$3,$4,$5,0*
20,1,$1+$1,$4,$5,$6,$7,0*
20,1,$1+$1,$6,$7,$8,$9,0*
20,1,$1+$1,$8,$9,$2,$3,0*%
G04 Aperture macros list end*
%ADD10C,1.910000*%
%ADD11R,1.910000X1.910000*%
%ADD12RoundRect,0.250000X-0.750000X-0.400000X0.750000X-0.400000X0.750000X0.400000X-0.750000X0.400000X0*%
%ADD13O,2.000000X1.300000*%
%ADD14RoundRect,0.250000X0.400000X-0.750000X0.400000X0.750000X-0.400000X0.750000X-0.400000X-0.750000X0*%
%ADD15O,1.300000X2.000000*%
%ADD16R,1.200000X1.200000*%
%ADD17C,1.200000*%
%ADD18R,2.000000X2.000000*%
%ADD19C,2.000000*%
%ADD20R,1.700000X1.700000*%
%ADD21O,1.700000X1.700000*%
%ADD22R,1.600000X1.600000*%
%ADD23O,1.600000X1.600000*%
%ADD24C,1.600000*%
%ADD25RoundRect,0.250000X-0.625000X0.350000X-0.625000X-0.350000X0.625000X-0.350000X0.625000X0.350000X0*%
%ADD26O,1.750000X1.200000*%
%ADD27C,2.780000*%
%ADD28R,1.498000X1.498000*%
%ADD29C,1.498000*%
%ADD30C,1.500000*%
G04 APERTURE END LIST*
D10*
%TO.C,U1*%
X22860000Y-68580000D03*
X22860000Y-66040000D03*
D11*
X22860000Y-63500000D03*
%TD*%
D12*
%TO.C,SW0*%
X27940000Y-50800000D03*
D13*
X27940000Y-52800000D03*
%TD*%
D12*
%TO.C,SW1*%
X106680000Y-116840000D03*
D13*
X106680000Y-118840000D03*
%TD*%
D12*
%TO.C,SW2*%
X96520000Y-116840000D03*
D13*
X96520000Y-118840000D03*
%TD*%
D12*
%TO.C,D0*%
X109220000Y-86360000D03*
D13*
X109220000Y-88360000D03*
%TD*%
D12*
%TO.C,D1*%
X109220000Y-99060000D03*
D13*
X109220000Y-101060000D03*
%TD*%
D14*
%TO.C,J1*%
X50800000Y-60960000D03*
D15*
X52800000Y-60960000D03*
%TD*%
D16*
%TO.C,C0*%
X38100000Y-101600000D03*
D17*
X38100000Y-99600000D03*
%TD*%
D18*
%TO.C,K2*%
X119380000Y-91440000D03*
D19*
X121920000Y-91440000D03*
X129540000Y-91440000D03*
X129540000Y-86360000D03*
X121920000Y-86360000D03*
X119380000Y-86360000D03*
%TD*%
D18*
%TO.C,K0*%
X119380000Y-71120000D03*
D19*
X121920000Y-71120000D03*
X129540000Y-71120000D03*
X129540000Y-66040000D03*
X121920000Y-66040000D03*
X119380000Y-66040000D03*
%TD*%
D20*
%TO.C,J2*%
X81280000Y-104140000D03*
D21*
X81280000Y-106680000D03*
X83820000Y-104140000D03*
X83820000Y-106680000D03*
X86360000Y-104140000D03*
X86360000Y-106680000D03*
%TD*%
D18*
%TO.C,K4*%
X119380000Y-111760000D03*
D19*
X121920000Y-111760000D03*
X129540000Y-111760000D03*
X129540000Y-106680000D03*
X121920000Y-106680000D03*
X119380000Y-106680000D03*
%TD*%
D22*
%TO.C,U0*%
X60960000Y-73660000D03*
D23*
X60960000Y-76200000D03*
X60960000Y-78740000D03*
X60960000Y-81280000D03*
X60960000Y-83820000D03*
X60960000Y-86360000D03*
X60960000Y-88900000D03*
X60960000Y-91440000D03*
X60960000Y-93980000D03*
X60960000Y-96520000D03*
X60960000Y-99060000D03*
X60960000Y-101600000D03*
X60960000Y-104140000D03*
X60960000Y-106680000D03*
X68580000Y-106680000D03*
X68580000Y-104140000D03*
X68580000Y-101600000D03*
X68580000Y-99060000D03*
X68580000Y-96520000D03*
X68580000Y-93980000D03*
X68580000Y-91440000D03*
X68580000Y-88900000D03*
X68580000Y-86360000D03*
X68580000Y-83820000D03*
X68580000Y-81280000D03*
X68580000Y-78740000D03*
X68580000Y-76200000D03*
X68580000Y-73660000D03*
%TD*%
D24*
%TO.C,R2*%
X66040000Y-116840000D03*
D23*
X86360000Y-116840000D03*
%TD*%
D24*
%TO.C,R4*%
X50800000Y-88900000D03*
D23*
X30480000Y-88900000D03*
%TD*%
D18*
%TO.C,K1*%
X119380000Y-81280000D03*
D19*
X121920000Y-81280000D03*
X129540000Y-81280000D03*
X129540000Y-76200000D03*
X121920000Y-76200000D03*
X119380000Y-76200000D03*
%TD*%
D24*
%TO.C,R0*%
X78740000Y-91440000D03*
D23*
X99060000Y-91440000D03*
%TD*%
D25*
%TO.C,J3*%
X144780000Y-86360000D03*
D26*
X144780000Y-88360000D03*
X144780000Y-90360000D03*
X144780000Y-92360000D03*
X144780000Y-94360000D03*
%TD*%
D27*
%TO.C,F0*%
X40640000Y-54200000D03*
X40640000Y-50800000D03*
X50560000Y-50800000D03*
X50560000Y-54200000D03*
%TD*%
D24*
%TO.C,R3*%
X66040000Y-121920000D03*
D23*
X86360000Y-121920000D03*
%TD*%
D28*
%TO.C,SW3*%
X20610000Y-81990000D03*
D29*
X20610000Y-75490000D03*
X25110000Y-81990000D03*
X25110000Y-75490000D03*
%TD*%
D24*
%TO.C,R1*%
X78740000Y-99060000D03*
D23*
X99060000Y-99060000D03*
%TD*%
D18*
%TO.C,K3*%
X119380000Y-101600000D03*
D19*
X121920000Y-101600000D03*
X129540000Y-101600000D03*
X129540000Y-96520000D03*
X121920000Y-96520000D03*
X119380000Y-96520000D03*
%TD*%
D25*
%TO.C,J0*%
X76200000Y-71120000D03*
D26*
X76200000Y-73120000D03*
X76200000Y-75120000D03*
X76200000Y-77120000D03*
X76200000Y-79120000D03*
%TD*%
D30*
%TO.C,Y0*%
X45720000Y-101600000D03*
X45720000Y-106480000D03*
%TD*%
D16*
%TO.C,C1*%
X38100000Y-106680000D03*
D17*
X38100000Y-108680000D03*
%TD*%
M02*
